<?xml version="1.0" standalone="no"?>
<!DOCTYPE svg PUBLIC "-//W3C//DTD SVG 20010904//EN"
 "http://www.w3.org/TR/2001/REC-SVG-20010904/DTD/svg10.dtd">
<svg version="1.0" xmlns="http://www.w3.org/2000/svg"
 width="139.000000pt" height="139.000000pt" viewBox="0 0 139.000000 139.000000"
 preserveAspectRatio="xMidYMid meet">
<metadata>
Created by potrace 1.14, written by Peter Selinger 2001-2017
</metadata>
<g transform="translate(0.000000,139.000000) scale(0.100000,-0.100000)"
fill="#000000" stroke="none">
<path d="M519 1284 c-136 -32 -230 -103 -282 -213 -27 -56 -30 -75 -30 -150 0
-73 5 -96 27 -144 28 -59 82 -113 145 -145 40 -20 158 -58 293 -92 114 -29
148 -50 148 -90 0 -16 -9 -39 -19 -49 -56 -56 -291 -30 -434 47 -26 14 -49 23
-51 21 -4 -4 -64 -102 -126 -203 -13 -22 -20 -37 -14 -34 5 3 25 9 44 12 25 4
667 134 840 170 8 1 31 6 51 10 l37 8 -3 59 c-10 193 -110 277 -433 360 -62
16 -126 36 -142 44 -58 30 -44 105 23 123 40 11 145 7 211 -9 28 -6 80 -27
115 -45 36 -19 67 -30 70 -25 84 125 142 224 135 231 -16 15 -100 59 -155 80
-121 47 -329 63 -450 34z"/>
<path d="M1075 399 c-44 -10 -98 -21 -120 -24 -22 -4 -42 -8 -45 -10 -3 -2
-25 -6 -50 -10 -25 -4 -47 -8 -50 -10 -3 -2 -23 -6 -45 -9 -22 -4 -48 -9 -57
-12 -16 -5 -40 -10 -88 -19 -14 -2 -81 -16 -150 -30 -69 -15 -136 -28 -150
-31 -14 -2 -38 -7 -55 -11 -16 -4 -34 -6 -40 -5 -24 5 36 -33 95 -60 272 -126
602 -115 766 26 46 39 93 126 101 185 7 48 8 48 -112 20z"/>
</g>
</svg>
